<svg xmlns="http://www.w3.org/2000/svg" viewBox="0 0 120 36.7" width="120" height="36.7">
    <path fill="#1f2227"
          d="M5.9,36.5h-3c-1.6,0-2.9-.9-2.9-2.5s1.2-2.4,2.8-2.4,2.8,1,2.8,2.4-.6,1.5-1.1,1.8h1.5v.7h-.1ZM1,34c0,1,.7,1.7,1.8,1.7s1.8-.7,1.8-1.7-.7-1.7-1.8-1.7-1.7.7-1.7,1.7h-.1ZM10.8,34.7c0,1.2-.9,1.9-2.1,1.9s-2.1-.7-2.1-1.9v-3h.9v3c0,.5.3,1.1,1.2,1.1s1.2-.6,1.2-1.1v-3h.9v3h0ZM13.6,31.7h.8l2.2,4.8h-1.1l-.5-1.1h-2.3l-.5,1.1h-1l2.3-4.8h.1ZM14.8,34.7l-.8-1.9-.8,1.9s1.6,0,1.6,0ZM17.2,31.7h.9v4h2.2v.8h-3.2v-4.8h.1ZM21,31.7h.9v4.8h-.9v-4.8ZM24.2,32.5h-1.6v-.8h4.1v.8h-1.6v4h-.9v-4ZM28.6,34.4l-2-2.7h1.2l1.3,1.9,1.3-1.9h1.1l-2,2.7v2.1h-.9s0-2.1,0-2.1ZM36.7,31.6c1.6,0,2.8,1,2.8,2.5s-1.1,2.5-2.8,2.5-2.8-1-2.8-2.5,1.2-2.5,2.8-2.5ZM36.7,35.8c1.1,0,1.8-.8,1.8-1.8s-.7-1.7-1.8-1.7-1.8.8-1.8,1.7.7,1.8,1.8,1.8ZM40.3,31.7h1.2l2.5,3.6h0v-3.6h.9v4.8h-1.2l-2.6-3.7h0v3.7h-.9v-4.8h0ZM47.8,31.7h1l1,3.5h0l1.2-3.5h.9l1.1,3.5h0l1-3.5h1l-1.5,4.8h-.9l-1.2-3.6h0l-1.2,3.6h-.8l-1.6-4.8ZM55.7,31.7h.9v1.9h2.4v-1.9h.9v4.8h-.9v-2.1h-2.4v2.1h-.9v-4.8ZM61.1,31.7h3.5v.8h-2.5v1.2h2.4v.8h-2.4v1.3h2.7v.8h-3.6v-4.8h0ZM65.6,31.7h3.5v.8h-2.5v1.2h2.4v.8h-2.4v1.3h2.7v.8h-3.6v-4.8h0ZM70.1,31.7h.9v4h2.2v.8h-3.2v-4.8h0ZM76.5,32.7c-.2-.3-.6-.4-.9-.4s-.8.2-.8.6c0,1,2.5.4,2.5,2.1s-.9,1.5-1.9,1.5-1.3-.2-1.7-.7l.7-.6c.2.3.6.5,1,.5s.9-.2.9-.7c0-1-2.5-.4-2.5-2.2s1-1.4,1.9-1.4,1.1,0,1.5.5l-.7.7h0Z"/>
    <path fill="#ac242a"
          d="M20.3,0l-12,15.9,4,9.3h7.6l-4.8-9.3,9.1-11.3h95.2L120,0S20.3,0,20.3,0ZM30.3,12.4h-.2l.5-2h-6.9l-2.2,14.8h6.9l.9-5.7c.3-1.8,1.4-3,3.1-3s1.3.4,2,.8l1.1-7.3c-2.3,0-3.6.4-5.1,2.3h0ZM46.6,12.1h-.2c-.8-1.5-2.1-2.1-3.8-2.1-4,0-6.8,4.1-7.3,7.8-.6,3.6,1,7.7,4.8,7.7s3.2-.9,4.7-2.3h.2l-.5,1.9h6.7l2.2-14.8h-6.7v1.8h-.1ZM45.8,17.7c-.2,1.1-.9,2.2-2.2,2.2s-1.6-1-1.5-2.2c.2-1.1,1-2,2.1-2s1.7.8,1.5,2h.1ZM75.4,10c-2.2,0-3.6,1.1-4.8,3.2h-.2c-.3-2-1.5-3.2-3.6-3.2s-3.7,1.1-4.6,3h-.2l.6-2.6h-6.5l-2.2,14.8h6.6l1.1-7.3c0-.9.3-2,1.3-2s.8,1.1.7,2l-1.1,7.3h6.6l1.1-7.3c0-.9.3-2,1.3-2s.8,1.1.7,2l-1.1,7.3h6.6l1.4-9.2c.5-3.2-.6-5.9-4-5.9h.3ZM109.8,10c-4.5,0-8.6,3.1-9.3,8-.8,5.1,2.9,7.5,7.4,7.5s7.3-1.7,8.7-5.2h-6.7c-.2.7-.8,1.2-1.6,1.2-1.4,0-1.4-1.3-1.2-2.5h10c1.1-5.6-2.3-9-7.3-9ZM110.8,15.9h-3.2c0-1,.8-1.9,1.8-1.9s1.5.9,1.4,1.9ZM4.2,0L0,25.2h6.5L10.7,0h-6.5ZM86.1,36.6l1.5-11,.3-2.4c.6,1.5,2.2,2.4,3.7,2.4,3.9,0,6.6-4.4,7.1-7.9.6-3.7-.8-7.6-4.7-7.6s-3.8,1-4.8,2.7l.3-2.3h-6.5l-3.5,26.2h6.6ZM88.5,17.8c.2-1.1.9-2.1,2.1-2.1s1.6,1,1.5,2-1.1,2.2-2.1,2.2-1.6-1-1.4-2.1h0ZM77.3,28.8H0v.7h77.3v-.7Z"/>
</svg>
